<?xml version="1.0" encoding="UTF-8"?>
<svg width="80px" height="80px" viewBox="0 0 80 80" version="1.1" xmlns="http://www.w3.org/2000/svg" xmlns:xlink="http://www.w3.org/1999/xlink">
    <!-- Generator: Sketch 51.1 (57501) - http://www.bohemiancoding.com/sketch -->
    <title>Group 10</title>
    <desc>Created with Sketch.</desc>
    <defs></defs>
    <g id="Page-1" stroke="none" stroke-width="1" fill="none" fill-rule="evenodd">
        <g id="About-Page" transform="translate(-1000.000000, -1045.000000)">
            <g id="Group-12" transform="translate(260.000000, 1045.000000)">
                <g id="Group-10" transform="translate(740.000000, 0.000000)">
                    <circle id="Oval-2-Copy" fill="#FFFFFF" fill-rule="nonzero" cx="40" cy="40" r="40"></circle>
                    <path d="M40.2341251,34.9434773 C37.5802691,34.6163447 34.9978521,35.9867992 33.7865961,38.3666951 C32.5752142,40.7467178 32.9876943,43.6352045 34.8168436,45.582392 C36.6461201,47.5295795 39.5080574,48.1268693 41.9645076,47.0721269 C44.4208297,46.0173845 45.9550773,43.5328011 45.7977125,40.8677746 C45.7886788,40.6379214 45.6557763,40.4309438 45.4503473,40.3268004 C45.2449183,40.2226571 44.9991283,40.2376545 44.80793,40.3659989 C44.6167316,40.4943433 44.5100621,40.715939 44.5291296,40.9451799 C44.6549656,43.0811856 43.4317671,45.0598428 41.4630479,45.9052102 C39.494203,46.7505777 37.211516,46.2759943 35.7454003,44.7153258 C34.2792847,43.1546572 33.9503174,40.8498826 34.9212029,38.942286 C35.8919614,37.0348163 37.9506751,35.9435284 40.0776491,36.2058182 C40.3034102,36.233726 40.5269342,36.1392617 40.6640217,35.9580092 C40.8011093,35.7767567 40.8309335,35.5362525 40.7422598,35.3270923 C40.6535861,35.1179321 40.4598863,34.9718924 40.2341251,34.9439848 L40.2341251,34.9434773 Z" id="Shape" stroke="#0A0A0A" stroke-width="0.3" fill="#0A0A0A" fill-rule="nonzero"></path>
                    <path d="M48.0891695,37.3553504 C47.8762328,37.350499 47.6750156,37.4524536 47.5532198,37.6269103 C47.431424,37.8013671 47.4052404,38.0251348 47.4834786,38.2229242 C48.2146296,40.1603409 48.2176803,42.2940625 47.4961867,44.234017 C47.4152452,44.4469205 47.4547043,44.6867987 47.5995978,44.8626703 C47.7444912,45.0385419 47.9726255,45.1234684 48.1974736,45.0852388 C48.4223216,45.0470092 48.6094431,44.8914791 48.6878664,44.6776383 C49.5194373,42.4506496 49.5148607,39.9984242 48.6751584,37.7743542 C48.5860188,37.5277787 48.3542045,37.3613005 48.0917123,37.3553504 L48.0891695,37.3553504 Z" id="Shape" stroke="#0A0A0A" stroke-width="0.3" fill="#0A0A0A" fill-rule="nonzero"></path>
                    <path d="M50.6141326,33.2928409 C50.3784802,33.2913412 50.1613369,33.4201353 50.0499461,33.6274766 C49.9385554,33.8348178 49.9512009,34.086673 50.082802,34.2818523 C53.2278206,39.070322 52.7751718,45.3607083 48.9755257,49.6499773 C45.1758784,53.9393731 38.9781258,55.1585701 33.8337554,52.6269091 C28.6893846,50.095375 25.8814692,44.4466913 26.9741284,38.8252898 C27.0296287,38.598185 26.9555857,38.359005 26.7814165,38.2027748 C26.6072472,38.0465447 26.3611559,37.9985636 26.1409135,38.0778943 C25.920671,38.1572249 25.7619425,38.3510209 25.7277901,38.5822879 C24.5270854,44.7596117 27.6196057,50.9828712 33.2726806,53.7646402 C38.9257551,56.5466629 45.7509354,55.2037443 49.9264541,50.4902689 C54.1018459,45.7769205 54.6013976,38.8497803 51.1453362,33.5877424 C51.0298637,33.4058101 50.8298504,33.2947713 50.6141326,33.2928409 Z" id="Shape" stroke="#0A0A0A" stroke-width="0.3" fill="#0A0A0A" fill-rule="nonzero"></path>
                    <path d="M37.5974293,23.2562917 C33.1787444,23.7106989 28.9267037,25.777928 25.7998629,29.3590019 C19.5461815,36.5208958 19.9156976,47.3078958 26.6440172,54.0275644 C33.3722097,60.7469792 44.1790615,61.1195398 51.3539278,54.8777538 C58.5289198,48.6359678 59.6395019,37.8974413 53.8937621,30.323142 C53.759555,30.1345779 53.5332154,30.0338594 53.3030408,30.0602778 C53.0728662,30.0866962 52.8753215,30.2360663 52.7874709,30.4501173 C52.6996203,30.6641682 52.7353813,30.9089895 52.8808032,31.0890739 C58.2304606,38.1410777 57.1975433,48.1094848 50.5172724,53.9209735 C43.8370015,59.7323352 33.8070622,59.3864223 27.5427026,53.1301705 C21.2783437,46.8740455 20.9356484,36.8599564 26.7581643,30.1918068 C32.5806801,23.5237841 42.564351,22.496197 49.6259599,27.839447 C49.8063128,27.9848049 50.0516155,28.020623 50.2661069,27.9329186 C50.4805983,27.8452142 50.6302701,27.6478932 50.6566935,27.4179855 C50.683117,27.1880778 50.5821027,26.9620361 50.3930843,26.8281023 C46.6008091,23.9586496 42.0162423,22.8018845 37.5974293,23.2562917 Z" id="Shape" stroke="#0A0A0A" stroke-width="0.3" fill="#0A0A0A" fill-rule="nonzero"></path>
                    <path d="M42.0091241,27.5172633 C40.1600175,27.1742689 38.2408735,27.2034545 36.3685053,27.626392 C32.6238983,28.472267 29.3912999,30.8175208 27.4309708,34.1133371 C27.2513486,34.4145204 27.3502792,34.8040606 27.6519385,34.9833994 C27.9535978,35.1627381 28.3437536,35.0639636 28.5233758,34.7627803 C30.3057474,31.766053 33.2443345,29.6323314 36.6490438,28.8633542 C40.0538796,28.0943769 43.6244693,28.7593011 46.5251768,30.6976061 C46.7141132,30.823791 46.9561228,30.8397533 47.160043,30.7394801 C47.3639632,30.639207 47.4988136,30.4379323 47.5137973,30.2114744 C47.5287811,29.9850164 47.4216217,29.7677795 47.2326853,29.6415947 C45.637551,28.5754318 43.8583563,27.8603845 42.0091241,27.5173902 L42.0091241,27.5172633 Z" id="Shape" stroke="#0A0A0A" stroke-width="0.3" fill="#0A0A0A" fill-rule="nonzero"></path>
                    <path d="M39.5587764,31.4063087 C36.0744946,31.3720473 32.7132584,33.1942443 30.8992357,36.366339 C28.4806659,40.595714 29.5317593,45.9666269 33.3669981,48.9757898 C37.2023639,51.9848258 42.6782445,51.7345909 46.2222679,48.3882708 C46.3878311,48.2325429 46.4574501,48.000367 46.4048335,47.7794232 C46.352217,47.5584794 46.1853829,47.3824359 45.9673353,47.3177747 C45.7492877,47.2531134 45.5132533,47.3096877 45.3483696,47.4661326 C42.2553408,50.3867235 37.4987906,50.6030777 34.1515368,47.9768807 C30.8042826,45.3505568 29.890725,40.6846667 32.0015555,36.9935758 C34.1123858,33.302358 38.6036522,31.7171989 42.5701985,33.2606098 C42.7839072,33.3526912 43.0309339,33.3207829 43.2141359,33.1774327 C43.3973379,33.0340826 43.4874114,32.8022201 43.4489353,32.5730245 C43.4104592,32.3438288 43.2495878,32.1539607 43.0295834,32.0780852 C41.8933238,31.6361136 40.7202033,31.4177292 39.5587764,31.4063087 Z" id="Shape" stroke="#0A0A0A" stroke-width="0.3" fill="#0A0A0A" fill-rule="nonzero"></path>
                    <path d="M46.6468233,31.7236705 C46.1574406,31.7237973 45.6657689,31.9075398 45.2962528,32.2764205 L41.2792439,36.2895682 C40.5400847,37.0275833 40.5399577,38.243608 41.2792439,38.9814962 L41.7186718,39.4201686 C42.457831,40.1581837 43.6756961,40.1581837 44.4148553,39.4201686 L48.4318655,35.4071477 C49.1711516,34.6691326 49.1711516,33.4532348 48.4318655,32.7152197 L47.9948522,32.2764205 C47.6253361,31.9074129 47.1360803,31.7236705 46.6468233,31.7236705 Z M46.1974816,33.1736875 C46.4541211,32.9174886 46.8395267,32.9174886 47.0961662,33.1736875 L47.5330526,33.6124867 C47.7898191,33.8688125 47.7898191,34.2535549 47.5330526,34.5098807 L43.5161694,38.5229015 C43.2595298,38.7792273 42.8741243,38.7792273 42.6174847,38.5229015 L42.1780568,38.0842292 C41.921162,37.8279034 41.921162,37.4432879 42.1780568,37.1868352 L46.1974816,33.1736875 Z" id="Shape" stroke="#0A0A0A" stroke-width="0.3" fill="#0A0A0A" fill-rule="nonzero"></path>
                    <path d="M55.4527973,19.6695076 C54.7610513,19.6695076 54.0694323,19.9253258 53.5461099,20.447875 C53.0321935,20.9626837 52.8940228,21.6054015 52.7815284,22.0887405 C52.3470579,23.9609337 52.1160934,27.9313182 52.1160934,27.9313182 C52.1050096,28.1152777 52.1744403,28.2949841 52.3063885,28.4238566 C52.4383368,28.5527291 52.6198113,28.6180792 52.8037731,28.6029678 C52.8037731,28.6029678 56.6193086,28.2993106 58.38236,27.9436269 C58.8928436,27.8408428 59.6738224,27.7880549 60.2866327,27.1776951 C60.82953,26.6320511 61.0386294,25.8994924 61.0139701,25.2169299 C60.9898236,24.5343674 60.7497032,23.8737576 60.2866327,23.385089 C59.8815241,22.9578371 59.3321446,22.6809545 58.7324269,22.6414905 C58.507565,22.6262633 58.2467309,22.7658466 58.0124618,22.8050568 C58.146184,21.9879867 58.0251698,21.1287879 57.3594847,20.4651326 C56.8357815,19.9389034 56.1445433,19.6744564 55.4527973,19.6719186 L55.4527973,19.6695076 Z M55.4527973,20.931214 C55.8151951,20.931214 56.178229,21.0737159 56.4608,21.3575777 C57.026832,21.9228902 56.9714106,22.8630473 56.6296058,23.2042652 C56.4118622,23.4213652 56.3808168,23.7628876 56.5558547,24.0155802 C56.7308926,24.2682727 57.061903,24.359793 57.3421975,24.2329943 C57.9194153,23.9718466 58.3521071,23.8861932 58.6505675,23.9057348 C58.9490267,23.9247689 59.1376625,24.0174015 59.3630323,24.2552008 C59.5671754,24.4706667 59.7311506,24.8641648 59.7453871,25.2591856 C59.7593647,25.6533182 59.6411586,26.0200417 59.3879468,26.2754792 C59.1682963,26.4942443 58.7269616,26.5745682 58.1341095,26.6943561 C56.8144267,26.9605795 54.3193357,27.1680511 53.4767059,27.2421572 C53.5377196,26.3924754 53.7121189,23.723642 54.0253237,22.3738712 C54.1333735,21.908678 54.2527285,21.5436042 54.4498803,21.3452689 C54.7287646,21.0668636 55.0881118,20.9274072 55.4503826,20.928803 L55.4527973,20.931214 Z" id="Shape" stroke="#0A0A0A" stroke-width="0.3" fill="#0A0A0A" fill-rule="nonzero"></path>
                    <path d="M41.666555,38.3815417 C41.5016382,38.3861383 41.3449725,38.454576 41.22967,38.5723902 L39.0052011,40.7934148 C38.8395123,40.9526418 38.7728875,41.1888063 38.8309825,41.4109663 C38.8890774,41.6331263 39.0628307,41.8066301 39.2853336,41.8646649 C39.5078364,41.9226997 39.7443836,41.8562135 39.9038858,41.6908087 L42.1283559,39.4697841 C42.3154502,39.287219 42.3714026,39.008849 42.2693447,38.7683475 C42.1672867,38.5278461 41.9280654,38.3743395 41.666555,38.3815417 Z" id="Shape" stroke="#0A0A0A" stroke-width="0.3" fill="#0A0A0A"></path>
                    <path d="M52.4711191,27.5940341 C52.3062022,27.5986307 52.1495366,27.6670684 52.034234,27.7848826 L47.5852951,32.2268049 C47.4196164,32.3860343 47.3529994,32.6221941 47.4110958,32.8443479 C47.4691923,33.0665017 47.6429409,33.2400005 47.8654377,33.2980365 C48.0879344,33.3560725 48.3244767,33.2895938 48.483981,33.1241989 L52.9329187,28.6822765 C53.1200128,28.4997116 53.1759653,28.2213419 53.0739077,27.9808406 C52.9718501,27.7403393 52.7326292,27.5868324 52.4711191,27.5940341 Z" id="Shape" stroke="#0A0A0A" stroke-width="0.3" fill="#0A0A0A"></path>
                    <path d="M27.6019372,36.4830814 C27.6019469,36.6513835 27.5349904,36.8127958 27.4157982,36.9318068 C27.296606,37.0508178 27.1349426,37.117678 26.9663745,37.117678 C26.7978065,37.117678 26.636143,37.0508177 26.5169509,36.9318067 C26.3977587,36.8127957 26.3308022,36.6513835 26.330812,36.4830814 C26.3308022,36.3147794 26.3977587,36.1533671 26.5169509,36.0343561 C26.636143,35.9153451 26.7978065,35.8484849 26.9663745,35.8484848 C27.1349426,35.8484848 27.296606,35.9153451 27.4157982,36.0343561 C27.5349904,36.1533671 27.6019469,36.3147793 27.6019372,36.4830814 Z" id="Shape" stroke="#0A0A0A" stroke-width="0.3" fill="#0A0A0A" fill-rule="nonzero"></path>
                    <path d="M47.792108,46.2940133 C47.7921178,46.4623154 47.7251612,46.6237277 47.605969,46.7427387 C47.4867768,46.8617497 47.3251133,46.9286099 47.1565451,46.9286098 C46.987977,46.9286099 46.8263135,46.8617497 46.7071213,46.7427387 C46.5879291,46.6237277 46.5209725,46.4623154 46.5209823,46.2940133 C46.5209725,46.1257111 46.5879291,45.9642988 46.7071213,45.8452878 C46.8263135,45.7262768 46.987977,45.6594166 47.1565451,45.6594167 C47.3251133,45.6594166 47.4867768,45.7262768 47.605969,45.8452878 C47.7251612,45.9642988 47.7921178,46.1257111 47.792108,46.2940133 Z" id="Shape" stroke="#0A0A0A" stroke-width="0.3" fill="#0A0A0A" fill-rule="nonzero"></path>
                </g>
            </g>
        </g>
    </g>
</svg>