<?xml version="1.0" encoding="UTF-8"?>
<svg width="80px" height="80px" viewBox="0 0 80 80" version="1.1" xmlns="http://www.w3.org/2000/svg" xmlns:xlink="http://www.w3.org/1999/xlink">
    <!-- Generator: Sketch 51.1 (57501) - http://www.bohemiancoding.com/sketch -->
    <title>Group 9</title>
    <desc>Created with Sketch.</desc>
    <defs></defs>
    <g id="Page-1" stroke="none" stroke-width="1" fill="none" fill-rule="evenodd">
        <g id="About-Page" transform="translate(-320.000000, -1045.000000)">
            <g id="Group-12" transform="translate(260.000000, 1045.000000)">
                <g id="Group-9" transform="translate(60.000000, 0.000000)">
                    <circle id="Oval-2-Copy-2" fill="#FFFFFF" fill-rule="nonzero" cx="40" cy="40" r="40"></circle>
                    <path d="M43.327957,29.1654473 C41.4653383,29.1654473 39.9408602,30.6899118 39.9408602,32.5525441 C39.9408602,34.4151763 41.4653383,35.9396409 43.327957,35.9396409 C45.1905757,35.9396409 46.7150538,34.4151763 46.7150538,32.5525441 C46.7150538,30.6899118 45.1905757,29.1654473 43.327957,29.1654473 Z M43.327957,30.520286 C44.4583653,30.520286 45.3602151,31.4222022 45.3602151,32.5525441 C45.3602151,33.6830215 44.4583653,34.5848022 43.327957,34.5848022 C42.1975487,34.5848022 41.2956989,33.6830215 41.2956989,32.5525441 C41.2956989,31.4222022 42.1975487,30.520286 43.327957,30.520286 Z" id="Shape" fill="#0A0A0A" fill-rule="nonzero"></path>
                    <path d="M44.005291,32.5537634 C44.005291,32.9278918 43.702,33.2311828 43.3278716,33.2311828 C42.9537433,33.2311828 42.6504523,32.9278918 42.6504523,32.5537634 C42.6504523,32.1796351 42.9537433,31.8763441 43.3278716,31.8763441 C43.702,31.8763441 44.005291,32.1796351 44.005291,32.5537634 Z" id="Shape" fill="#0A0A0A" fill-rule="nonzero"></path>
                    <path d="M46.1620045,31.9095376 C45.8746978,31.9233477 45.6274308,32.117073 45.5452705,32.3927279 C45.4631102,32.6683827 45.5639693,32.9658687 45.7968335,33.1347183 C49.4321449,35.8387054 51.1447314,40.4186022 50.1735966,44.8440473 C49.2024496,49.269357 45.7317972,52.7118667 41.2983449,53.6452151 C41.0560877,53.6894241 40.8568968,53.8616058 40.7781005,54.0949171 C40.6993043,54.3282284 40.753313,54.5859232 40.9191599,54.7679612 C41.0850067,54.9499992 41.336571,55.0277098 41.5761925,54.9709247 C46.5276904,53.9285118 50.4120563,50.0775183 51.496682,45.1350667 C52.5812927,40.1926151 50.6666549,35.0698344 46.606561,32.0497634 C46.4796272,31.9519083 46.3221117,31.9022234 46.1620045,31.9095376 Z" id="Shape" fill="#0A0A0A" fill-rule="nonzero"></path>
                    <path d="M39.6019825,53.2161376 C39.6019825,53.590266 39.2986916,53.893557 38.9245632,53.893557 C38.5504348,53.893557 38.2471438,53.590266 38.2471438,53.2161376 C38.2471438,52.8420093 38.5504348,52.5387183 38.9245632,52.5387183 C39.2986916,52.5387183 39.6019825,52.8420093 39.6019825,53.2161376 Z" id="Shape" fill="#0A0A0A" fill-rule="nonzero"></path>
                    <path d="M44.7648271,34.2355247 C44.4763613,34.2409588 44.222875,34.428212 44.1328959,34.7023394 C44.0429168,34.9764668 44.136123,35.2775177 44.3652554,35.4528473 C46.9740176,37.5032602 48.2076416,40.8436151 47.559182,44.0978022 C46.910702,47.3519892 44.4912323,49.9622215 41.2956989,50.8561441 C41.0621993,50.9218482 40.8814895,51.1071319 40.8216411,51.3422006 C40.7617928,51.5772693 40.8318983,51.8264105 41.0055497,51.9957749 C41.179201,52.1651394 41.4300164,52.2289968 41.663516,52.1632925 C45.3486082,51.1325312 48.1423763,48.1151699 48.8902053,44.3624022 C49.6380099,40.6096344 48.2125177,36.7510538 45.2040916,34.3863183 C45.079965,34.2859506 44.9244275,34.2325567 44.7648271,34.2355247 Z" id="Shape" fill="#0A0A0A" fill-rule="nonzero"></path>
                    <path d="M38.9247312,49.8267376 C37.0621125,49.8267376 35.5376344,51.3512022 35.5376344,53.2138344 C35.5376344,55.0764667 37.0621125,56.6009312 38.9247312,56.6009312 C40.7873499,56.6009312 42.311828,55.0764667 42.311828,53.2138344 C42.311828,51.3512022 40.7873499,49.8267376 38.9247312,49.8267376 Z M38.9247312,51.1815763 C40.0551395,51.1815763 40.9569892,52.0834925 40.9569892,53.2138344 C40.9569892,54.3443118 40.0551395,55.2460925 38.9247312,55.2460925 C37.7943229,55.2460925 36.8924731,54.3443118 36.8924731,53.2138344 C36.8924731,52.0834925 37.7943229,51.1815763 38.9247312,51.1815763 Z" id="Shape" fill="#0A0A0A" fill-rule="nonzero"></path>
                    <path d="M28.5993783,48.1597441 C28.3484598,48.1538684 28.1148534,48.2871939 27.9922944,48.5062234 C27.8697353,48.7252529 27.8783089,48.9940914 28.0145749,49.2048667 C29.852528,52.1417505 32.7983131,54.2142473 36.1832991,54.9523634 C36.5493837,55.032012 36.9107218,54.7998097 36.9903704,54.4337251 C37.0700189,54.0676405 36.8378166,53.7063023 36.471732,53.6266538 C33.4425416,52.9660344 30.8077773,51.1132925 29.1630125,48.4851763 C29.0429539,48.287649 28.830471,48.1649652 28.5993783,48.1597441 Z" id="Shape" fill="#0A0A0A" fill-rule="nonzero"></path>
                    <path d="M32.0023522,48.1570344 C31.7260551,48.1471755 31.4714867,48.3061944 31.3591513,48.5588167 C31.2468159,48.8114389 31.2992534,49.1069763 31.4916416,49.3055312 C32.8070722,50.7170022 34.4961103,51.7247312 36.3632392,52.2109828 C36.5977201,52.2719982 36.8469402,52.2032725 37.0170056,52.0306981 C37.187071,51.8581238 37.2521397,51.607924 37.1876971,51.3743618 C37.1232544,51.1407996 36.9390927,50.9593655 36.7045949,50.8984151 C35.0863241,50.4770602 33.6214142,49.6026473 32.4813093,48.3793634 C32.3582976,48.2435255 32.1855034,48.1633154 32.0023522,48.1570344 Z" id="Shape" fill="#0A0A0A" fill-rule="nonzero"></path>
                    <path d="M42.6425996,21.7138344 C42.4666209,21.716646 42.2986434,21.7878306 42.1742278,21.9123183 L32.6956489,31.3936151 C32.518383,31.5634586 32.4468691,31.8159104 32.508721,32.0534907 C32.5705729,32.2910709 32.7561115,32.4766014 32.9936944,32.5384428 C33.2312774,32.6002843 33.483726,32.5287593 33.6535618,32.351486 L42.6531836,23.3492602 L46.7732698,27.4693247 L44.5425482,29.7000667 C44.371431,29.8716522 44.3048548,30.1214953 44.3678991,30.3554784 C44.4309435,30.5894616 44.61403,30.7720355 44.848189,30.8344236 C45.082348,30.8968117 45.3320034,30.8295352 45.5031085,30.6579376 L48.21014,27.9482602 C48.4745549,27.6837126 48.4745549,27.2549369 48.21014,26.9903892 L43.1321408,21.9123183 C43.0025382,21.7826445 42.8259143,21.7110325 42.6425996,21.7138344 Z M40.9464052,33.5581054 C40.7705993,33.5630025 40.6035877,33.6360746 40.4806794,33.7618731 L37.773648,36.4715505 C37.5963822,36.6413941 37.5248683,36.8938459 37.5867202,37.1314261 C37.648572,37.3690064 37.8341106,37.5545369 38.0716936,37.6163783 C38.3092765,37.6782198 38.5617252,37.6066948 38.731561,37.4294215 L41.4385924,34.7197441 C41.6379244,34.5248397 41.697512,34.2277268 41.5887505,33.9710326 C41.479989,33.7143384 41.2250856,33.5504755 40.9464052,33.5581054 Z" id="Shape" fill="#0A0A0A" fill-rule="nonzero"></path>
                    <path d="M34.1642723,32.2165441 C33.9884664,32.2214412 33.8214548,32.2945133 33.6985465,32.4203118 L29.3006133,36.820828 C29.0361081,37.0853911 29.0361081,37.5142713 29.3006133,37.7788344 L32.3463538,40.8218022 C32.6109063,41.086245 33.0397143,41.086245 33.3042668,40.8218022 L37.7022006,36.4239957 C37.8784458,36.2539313 37.9491823,36.0019846 37.8872092,35.7650382 C37.8252361,35.5280917 37.6402036,35.3430411 37.4032632,35.2810449 C37.1663228,35.2190488 36.9143692,35.2897606 36.7442876,35.4659892 L32.825311,39.3849957 L30.7374829,37.2997634 L34.6564595,33.3781828 C34.8557915,33.1832784 34.9153791,32.8861655 34.8066176,32.6294713 C34.6978561,32.3727772 34.4429527,32.2089143 34.1642723,32.2165441 Z" id="Shape" fill="#0A0A0A" fill-rule="nonzero"></path>
                    <path d="M47.3845351,19.6815763 C47.2085564,19.684388 47.0405788,19.7555725 46.9161633,19.8800602 L43.5343585,23.2645828 C43.3570919,23.4344262 43.2855774,23.6868784 43.3474291,23.9244591 C43.4092809,24.1620399 43.5948199,24.3475708 43.8324034,24.4094121 C44.0699868,24.4712535 44.3224359,24.3997279 44.4922715,24.2224538 L47.3951191,21.3170022 L48.8055279,22.7273892 L45.9000343,25.6328409 C45.7227676,25.8026843 45.6512531,26.0551364 45.7131049,26.2927172 C45.7749566,26.530298 45.9604956,26.7158288 46.1980791,26.7776702 C46.4356626,26.8395115 46.6881116,26.7679859 46.8579472,26.5907118 L50.242398,23.2063247 C50.5068129,22.9417771 50.5068129,22.5130014 50.242398,22.2484538 L47.8740763,19.8800602 C47.7444737,19.7503864 47.5678498,19.6787745 47.3845351,19.6815763 Z" id="Shape" fill="#0A0A0A" fill-rule="nonzero"></path>
                    <path d="M32.1505376,30.1815763 C31.8745113,30.1816182 31.626109,30.3491164 31.5225961,30.6049984 C31.4190833,30.8608805 31.4811595,31.1539776 31.6795198,31.3459247 L38.7765457,38.4455505 C38.9463817,38.622823 39.1988299,38.6943474 39.4364124,38.6325058 C39.6739948,38.5706642 39.859533,38.3851342 39.921385,38.1475544 C39.983237,37.9099747 39.9117237,37.6575233 39.7344587,37.4876796 L32.6374328,30.3880538 C32.50981,30.2561067 32.3341067,30.1815963 32.1505376,30.1815763 Z" id="Shape" fill="#0A0A0A"></path>
                    <path d="M23.344086,45.4235118 L23.344086,49.488028 L36.5537634,49.488028 L36.5537634,48.8106086 L36.5537634,45.4235118 L23.344086,45.4235118 Z M24.6989247,46.7783505 L35.1989247,46.7783505 L35.1989247,48.1331892 L24.6989247,48.1331892 L24.6989247,46.7783505 Z" id="Shape" fill="#0A0A0A"></path>
                    <polygon id="Shape" fill="#0A0A0A" points="26.3924731 42.7138344 26.3924731 44.0686731 33.1666667 44.0686731 33.1666667 42.7138344"></polygon>
                    <path d="M32.1505376,54.9073828 C31.9240349,54.9074142 31.7125316,55.0206353 31.5869031,55.2091054 L29.554645,58.2574925 C29.4161538,58.4653676 29.4032799,58.7325839 29.5211462,58.9528097 C29.6390125,59.1730356 29.8684959,59.3105407 30.1182796,59.3106086 L47.7311828,59.3106086 C47.9809665,59.3105407 48.2104498,59.1730356 48.3283161,58.9528097 C48.4461825,58.7325839 48.4333086,58.4653676 48.2948174,58.2574925 L46.2625593,55.2091054 C46.1369308,55.0206353 45.9254275,54.9074142 45.6989247,54.9073828 L40.2795699,54.9073828 L40.2795699,56.2622215 L45.3363997,56.2622215 L46.4663135,57.9557699 L31.3831489,57.9557699 L32.5130627,56.2622215 L37.5698925,56.2622215 L37.5698925,54.9073828 L32.1505376,54.9073828 Z" id="Shape" fill="#0A0A0A"></path>
                </g>
            </g>
        </g>
    </g>
</svg>