<?xml version="1.0" encoding="UTF-8"?>
<svg width="80px" height="80px" viewBox="0 0 80 80" version="1.1" xmlns="http://www.w3.org/2000/svg" xmlns:xlink="http://www.w3.org/1999/xlink">
    <!-- Generator: Sketch 51.1 (57501) - http://www.bohemiancoding.com/sketch -->
    <title>Group 11</title>
    <desc>Created with Sketch.</desc>
    <defs></defs>
    <g id="Page-1" stroke="none" stroke-width="1" fill="none" fill-rule="evenodd">
        <g id="About-Page" transform="translate(-660.000000, -1045.000000)">
            <g id="Group-12" transform="translate(260.000000, 1045.000000)">
                <g id="Group-11" transform="translate(400.000000, 0.000000)">
                    <circle id="Oval-2" fill="#FFFFFF" fill-rule="nonzero" cx="40" cy="40" r="40"></circle>
                    <g id="Group-6" transform="translate(17.000000, 18.000000)" fill="#000000">
                        <path d="M1.57697643,17.23255 C1.25725666,17.2313778 0.968903427,17.4245872 0.848424426,17.7207118 C0.727945426,18.0168365 0.799517027,18.3564535 1.02925692,18.5787867 L3.36395889,20.9134333 C3.56068359,21.1169333 3.85189263,21.1985013 4.1257159,21.1268023 C4.39953916,21.0551034 4.61338901,20.8412888 4.68511343,20.5674971 C4.75683786,20.2937054 4.67528158,20.0025193 4.47177505,19.8058 L2.13691641,17.47131 C1.99008695,17.3195073 1.78817941,17.2334134 1.57697643,17.23255 Z" id="Shape"></path>
                        <path d="M3.89773491,17.23255 C3.69396012,17.2390256 3.50073657,17.3246758 3.35910206,17.47131 L1.02440009,19.8058 C0.819635307,20.002225 0.737100711,20.2940085 0.808639841,20.5685743 C0.880178971,20.8431401 1.09460768,21.0575637 1.36919498,21.1291162 C1.64378228,21.2006686 1.93560027,21.1181636 2.13205959,20.9134333 L4.46691838,18.5787867 C4.69975742,18.353773 4.77015586,18.0087113 4.64406677,17.7104845 C4.51797767,17.4122577 4.22138675,17.2223274 3.89773491,17.23255 Z" id="Shape"></path>
                        <path d="M14.8768818,39.1643167 C14.6691123,39.167553 14.4711398,39.2531912 14.3265221,39.4023891 C14.1819044,39.551587 14.1024899,39.7521212 14.1057512,39.95987 L14.1057512,43.0714267 C14.1017483,43.3539087 14.2501726,43.6166627 14.4941877,43.7590718 C14.7382029,43.9014809 15.0400023,43.9014809 15.2840174,43.7590718 C15.5280326,43.6166627 15.6764569,43.3539087 15.6724539,43.0714267 L15.6724539,39.95987 C15.675782,39.7478837 15.5930341,39.5436014 15.4431096,39.3936805 C15.2931851,39.2437596 15.088889,39.1610046 14.8768818,39.1643167 Z" id="Shape"></path>
                        <path d="M13.3316416,40.73067 C13.0504145,40.7286485 12.7896805,40.8775073 12.6484801,41.120702 C12.5072797,41.3638968 12.5072797,41.6641099 12.6484801,41.9073046 C12.7896805,42.1504994 13.0504145,42.2993582 13.3316416,42.2973367 L16.4435861,42.2973367 C16.7248132,42.2993582 16.9855472,42.1504994 17.1267476,41.9073046 C17.267948,41.6641099 17.267948,41.3638968 17.1267476,41.120702 C16.9855472,40.8775073 16.7248132,40.7286485 16.4435861,40.73067 L13.3316416,40.73067 Z" id="Shape"></path>
                        <path d="M34.4728989,39.9404433 C34.1531794,39.939272 33.8648269,40.1324816 33.7443484,40.428606 C33.6238699,40.7247305 33.6954416,41.0643471 33.9251812,41.28668 L36.2598827,43.62117 C36.4563114,43.8259359 36.7481216,43.9084882 37.0227239,43.8369755 C37.2973262,43.7654628 37.5117889,43.5510656 37.5833657,43.276505 C37.6549424,43.0019443 37.5724429,42.7101454 37.3676978,42.5136933 L35.0328396,40.1792033 C34.88601,40.0274004 34.6841021,39.9413065 34.4728989,39.9404433 Z" id="Shape"></path>
                        <path d="M36.7985153,39.9431067 C36.5947406,39.9495823 36.4015172,40.0352326 36.2598827,40.1818667 L33.9251812,42.5163567 C33.7193716,42.7125532 33.6360404,43.0048535 33.7074564,43.2800683 C33.7788724,43.555283 33.9938217,43.770197 34.269068,43.8415878 C34.5443144,43.9129785 34.8366376,43.8296359 35.0328396,43.6238333 L37.3676978,41.2893433 C37.6005367,41.0643298 37.6709352,40.7192684 37.5448463,40.4210417 C37.4187575,40.122815 37.1221669,39.9328845 36.7985153,39.9431067 Z" id="Shape"></path>
                        <path d="M24.5555072,6.34014333 C18.8456558,5.74261667 13.0543351,8.32495333 9.76363038,13.4050267 C5.37607667,20.1783533 6.85598478,29.1932667 13.1785749,34.20754 C19.5011648,39.22197 28.614681,38.60627 34.2067175,32.7879833 C39.7985958,26.9696967 40.054752,17.8354033 34.7972083,11.71287 C34.6164514,11.4944504 34.3317751,11.3907303 34.0528593,11.441671 C33.7739436,11.4926116 33.5443198,11.6902625 33.4524574,11.9584727 C33.360595,12.2266829 33.4208313,12.5235919 33.6099585,12.7348067 C38.3503346,18.2551133 38.1194017,26.4588067 33.0775926,31.70479 C28.0356269,36.9507733 19.8522642,37.5016133 14.1516546,32.98084 C8.45104603,28.4595967 7.12028787,20.3629067 11.0763716,14.25557 C15.0324549,8.14823333 22.9637363,6.05438333 29.4177716,9.41206333 C29.801677,9.60825565 30.2719791,9.45811455 30.4711562,9.07577666 C30.6703334,8.69343877 30.5238224,8.22203449 30.1430004,8.01992333 C28.3535114,7.08901 26.458896,6.53926667 24.5555072,6.34014333 Z" id="Shape" fill-rule="nonzero"></path>
                        <path d="M32.8939746,0.783803333 C32.6862051,0.787039683 32.4882326,0.872677881 32.3436149,1.02187579 C32.1989972,1.1710737 32.1195827,1.37160785 32.122844,1.57935667 L32.122844,4.69107 C32.1188613,4.97353913 32.2672902,5.23627232 32.5112973,5.378669 C32.7553044,5.52106569 33.057088,5.52106569 33.3010951,5.378669 C33.5451022,5.23627232 33.6935311,4.97353913 33.6895483,4.69107 L33.6895483,1.57935667 C33.6928763,1.36737013 33.6101282,1.16308756 33.4602034,1.01316659 C33.3102786,0.863245614 33.105982,0.78049087 32.8939746,0.783803333 Z" id="Shape"></path>
                        <path d="M31.3487352,2.35015667 C31.0675081,2.34813514 30.8067741,2.49699394 30.6655737,2.7401887 C30.5243733,2.98338346 30.5243733,3.28359654 30.6655737,3.5267913 C30.8067741,3.76998606 31.0675081,3.91884486 31.3487352,3.91682333 L34.4606804,3.91682333 C34.7419076,3.91884486 35.0026416,3.76998606 35.143842,3.5267913 C35.2850424,3.28359654 35.2850424,2.98338346 35.143842,2.7401887 C35.0026416,2.49699394 34.7419076,2.34813514 34.4606804,2.35015667 L31.3487352,2.35015667 Z" id="Shape"></path>
                        <path d="M10.9723424,0.788033333 C10.6526226,0.78686118 10.3642694,0.980070504 10.2437904,1.27619515 C10.1233114,1.5723198 10.194883,1.91193682 10.4246229,2.13427 L12.7593248,4.46876 C12.9560495,4.67225996 13.2472586,4.75382795 13.5210819,4.682129 C13.7949051,4.61043006 14.008755,4.3966155 14.0804794,4.12282379 C14.1522038,3.84903207 14.0706475,3.55784592 13.867141,3.36112667 L11.5322824,1.02679333 C11.3854529,0.874990639 11.1835454,0.788896693 10.9723424,0.788033333 Z" id="Shape"></path>
                        <path d="M13.2979577,0.78772 C13.0941829,0.794195555 12.9009594,0.879845835 12.7593248,1.02648 L10.4246229,3.36081333 C10.2198581,3.55723837 10.1373235,3.84902179 10.2088626,4.1235876 C10.2804018,4.39815341 10.4948305,4.61257705 10.7694178,4.6841295 C11.0440051,4.75568194 11.335823,4.67317696 11.5322824,4.46844667 L13.867141,2.13395667 C14.09998,1.90894304 14.1703785,1.56388139 14.0442894,1.26565461 C13.9182004,0.967427832 13.6216095,0.777497491 13.2979577,0.78772 Z" id="Shape"></path>
                        <path d="M43.8609013,22.7154133 C43.653104,22.718649 43.455107,22.8043087 43.3104845,22.9535406 C43.165862,23.1027726 43.0864659,23.3033473 43.0897692,23.5111233 L43.0897692,26.6228367 C43.0857864,26.9053058 43.2342153,27.168039 43.4782224,27.3104357 C43.7222295,27.4528324 44.0240131,27.4528324 44.2680202,27.3104357 C44.5120273,27.168039 44.6604562,26.9053058 44.6564735,26.6228367 L44.6564735,23.5111233 C44.6598443,23.2991101 44.5771154,23.0947869 44.4271861,22.9448317 C44.2772569,22.7948764 44.0729361,22.7121002 43.8609013,22.7154133 Z" id="Shape"></path>
                        <path d="M42.315662,24.2819233 C42.0344348,24.2799018 41.7737008,24.4287606 41.6325004,24.6719554 C41.4913,24.9151501 41.4913,25.2153632 41.6325004,25.458558 C41.7737008,25.7017527 42.0344348,25.8506115 42.315662,25.84859 L45.4276072,25.84859 C45.7088343,25.8506115 45.9695683,25.7017527 46.1107687,25.458558 C46.2519691,25.2153632 46.2519691,24.9151501 46.1107687,24.6719554 C45.9695683,24.4287606 45.7088343,24.2799018 45.4276072,24.2819233 L42.315662,24.2819233 Z" id="Shape"></path>
                        <path d="M26.0518666,20.7573933 C24.4387874,20.7573933 23.1142976,22.08154 23.1142976,23.69458 C23.1142976,25.30762 24.4387874,26.6319233 26.0518666,26.6319233 C27.6649457,26.6319233 28.9894355,25.30762 28.9894355,23.69458 C28.9894355,22.08154 27.6649457,20.7573933 26.0518666,20.7573933 Z M26.0518666,22.3237467 C26.8182987,22.3237467 27.4227328,22.9283233 27.4227328,23.69458 C27.4227328,24.4608367 26.8182987,25.0652567 26.0518666,25.0652567 C25.2854344,25.0652567 24.6810019,24.4608367 24.6810019,23.69458 C24.6810019,22.9283233 25.2854344,22.3237467 26.0518666,22.3237467 Z" id="Shape" fill-rule="nonzero"></path>
                        <path d="M13.3223982,19.1907267 C12.0337843,19.1907267 10.9723424,20.2521433 10.9723424,21.5404133 C10.9723424,22.8289967 12.0337843,23.8904133 13.3223982,23.8904133 C14.6110122,23.8904133 15.6724539,22.8289967 15.6724539,21.5404133 C15.6724539,20.2521433 14.6110122,19.1907267 13.3223982,19.1907267 Z M13.3223982,20.7573933 C13.7643652,20.7573933 14.1057512,21.0986133 14.1057512,21.5404133 C14.1057512,21.98237 13.7643652,22.3237467 13.3223982,22.3237467 C12.880431,22.3237467 12.5390463,21.98237 12.5390463,21.5404133 C12.5390463,21.0986133 12.880431,20.7573933 13.3223982,20.7573933 Z" id="Shape" fill-rule="nonzero"></path>
                        <path d="M24.4851639,12.1411967 C23.3046523,12.1411967 22.3309455,13.1150367 22.3309455,14.2953633 C22.3309455,15.4755333 23.3046523,16.4492167 24.4851639,16.4492167 C25.6656738,16.4492167 26.6393807,15.4755333 26.6393807,14.2953633 C26.6393807,13.1150367 25.6656738,12.1411967 24.4851639,12.1411967 Z M24.4851639,13.7078633 C24.8188717,13.7078633 25.0726764,13.9616633 25.0726764,14.2953633 C25.0726764,14.6290633 24.8188717,14.88255 24.4851639,14.88255 C24.151456,14.88255 23.8976482,14.6290633 23.8976482,14.2953633 C23.8976482,13.9616633 24.151456,13.7078633 24.4851639,13.7078633 Z" id="Shape" fill-rule="nonzero"></path>
                        <path d="M8.03790616,20.9043467 C7.83484921,20.9009761 7.63841774,20.976581 7.49002982,21.11522 C5.92771301,22.5354033 4.96011649,23.9762667 4.7421883,25.4385933 C4.5244163,26.9012333 5.19574879,28.3171867 6.52932711,29.2662733 C9.19632722,31.1641333 14.0343083,31.57084 19.7574777,30.7470867 C20.0362298,30.7090153 20.2731825,30.5244576 20.3783191,30.2635257 C20.4834557,30.0025938 20.4406411,29.7053322 20.2661404,29.4846685 C20.0916397,29.2640049 19.8122329,29.1538038 19.5340648,29.19593 C14.0239681,29.9889767 9.40720526,29.3916067 7.43801539,27.9902233 C6.45349872,27.2897667 6.15692151,26.5866467 6.2936948,25.66811 C6.42999793,24.7495733 7.14002834,23.5499767 8.54269822,22.2748667 C8.78505163,22.0609606 8.87112376,21.7201762 8.75940567,21.4168594 C8.64768757,21.1135427 8.36112151,20.9099822 8.03790616,20.9043467 Z" id="Shape" fill-rule="nonzero"></path>
                        <path d="M36.1956478,13.5977267 C35.8027775,13.6089818 35.4790536,13.9095626 35.4387787,14.300487 C35.3985038,14.6914114 35.654145,15.0516695 36.0364698,15.1427733 C38.0089517,15.64865 39.1159834,16.4722467 39.5065613,17.3060267 C39.8971422,18.13965 39.7497158,19.16848 38.7109891,20.5341433 C36.6333839,23.265 31.3365152,26.2704933 25.0726764,28.02093 C24.7977737,28.0916236 24.582616,28.3054688 24.5102614,28.579914 C24.4379069,28.8543593 24.5196746,29.1464704 24.7239996,29.3434826 C24.9283245,29.5404949 25.223242,29.6115876 25.494904,29.5293167 C31.9746327,27.7184067 37.465146,24.7611667 39.9594956,21.48229 C41.206592,19.8430867 41.6095481,18.0975067 40.9263091,16.63894 C40.2430685,15.1803733 38.6538058,14.1961933 36.4281459,13.6253 C36.3524974,13.6043048 36.2741225,13.5947986 36.1956478,13.5971 L36.1956478,13.5977267 Z" id="Shape" fill-rule="nonzero"></path>
                        <path d="M23.2723774,29.4552133 C23.2723928,29.662961 23.189868,29.8622051 23.0429593,30.0091102 C22.8960507,30.1560154 22.6967932,30.2385467 22.4890253,30.2385467 C22.2812577,30.2385463 22.0820006,30.1560148 21.9350923,30.0091097 C21.7881839,29.8622045 21.7056594,29.6629607 21.7056747,29.4552133 C21.7056594,29.247466 21.7881839,29.0482221 21.9350923,28.901317 C22.0820006,28.7544119 22.2812577,28.6718804 22.4890253,28.67188 C22.6967932,28.6718799 22.8960507,28.7544113 23.0429593,28.9013164 C23.189868,29.0482216 23.2723928,29.2474657 23.2723774,29.4552133 Z" id="Shape" fill-rule="nonzero"></path>
                        <path d="M32.8795628,10.26621 C32.8795782,10.4739576 32.7970534,10.6732017 32.6501447,10.8201069 C32.5032361,10.9670121 32.3039786,11.0495434 32.0962107,11.0495433 C31.8884425,11.0495438 31.6891847,10.9670127 31.5422756,10.8201074 C31.3953666,10.6732022 31.3128417,10.4739579 31.312857,10.26621 C31.3128417,10.0584621 31.3953666,9.85921777 31.5422756,9.71231256 C31.6891847,9.56540735 31.8884425,9.48287619 32.0962107,9.48287667 C32.3039786,9.4828766 32.5032361,9.56540795 32.6501447,9.71231311 C32.7970534,9.85921828 32.8795782,10.0584624 32.8795628,10.26621 Z" id="Shape" fill-rule="nonzero"></path>
                    </g>
                </g>
            </g>
        </g>
    </g>
</svg>