<?xml version="1.0" encoding="utf-8"?>
<!-- Generator: Adobe Illustrator 18.0.0, SVG Export Plug-In . SVG Version: 6.00 Build 0)  -->
<!DOCTYPE svg PUBLIC "-//W3C//DTD SVG 1.1//EN" "http://www.w3.org/Graphics/SVG/1.1/DTD/svg11.dtd">
<svg version="1.1" id="Layer_1" xmlns="http://www.w3.org/2000/svg" xmlns:xlink="http://www.w3.org/1999/xlink" x="0px" y="0px"
	 width="150px" height="79.4px" viewBox="0 0 150 79.4" enable-background="new 0 0 150 79.4" xml:space="preserve">
<g>
	<g>
		<path fill="#FFFFFF" d="M147.3,27.8v48.6l-72.1-7l-0.3,0l-0.3,0l-72.1,7V27.8H147.3 M150,25.2H0v54.2l75-7.3l75,7.3V25.2L150,25.2
			z"/>
		<g>
			<g>
				<path fill="#FFFFFF" d="M12.2,67.8v-31h10.1v3.4h-6.6V49h4.9v3.4h-4.9v11.3l6.6-0.6v3.6L12.2,67.8z"/>
				<path fill="#FFFFFF" d="M36,36.8l1.7,1.7v25.1L36,65.3l-8.9,1V36.8H36z M33.7,61.8l0.4-0.4V40.6l-0.4-0.4l-3.1,0v22.1L33.7,61.8
					z"/>
				<path fill="#FFFFFF" d="M42.9,64.8v-28h3.5v27.6L42.9,64.8z"/>
				<path fill="#FFFFFF" d="M61.9,40.2h-3.8v23.1l-3.5,0.3V40.2h-3.8v-3.4h11.1V40.2z"/>
				<path fill="#FFFFFF" d="M80.1,42.8v-2.2l-0.4-0.4H77l-0.4,0.4v5.8l0.4,0.4h4.9l1.7,1.7v12l-1.7,1.7l-7.1-0.7l-1.7-1.7v-4.3h3.5
					v2.2l0.4,0.4l2.7,0.3l0.4-0.4v-7.5l-0.4-0.4h-4.9l-1.7-1.7v-10l1.7-1.7h7.1l1.7,1.7v4.3H80.1z"/>
				<path fill="#FFFFFF" d="M99.1,62.3l-1.7,1.5l-7.1-0.7l-1.7-1.7V36.8h3.5v22.5l0.4,0.4l2.7,0.3l0.4-0.4V36.8h3.5V62.3z"/>
				<path fill="#FFFFFF" d="M104.3,64.5V36.8h3.5v28.1L104.3,64.5z"/>
				<path fill="#FFFFFF" d="M123.3,40.2h-3.8V66l-3.5-0.3V40.2h-3.8v-3.4h11.1V40.2z"/>
				<path fill="#FFFFFF" d="M127.7,66.8v-30h10.1v3.4h-6.6V49h4.9v3.4h-4.9v11.2l6.6,0.6v3.5L127.7,66.8z"/>
			</g>
		</g>
	</g>
	<g>
		<path fill="#FFFFFF" d="M74.2,4.6c-0.8,0-2.2-0.1-3.3-0.3l-3.8,9.4c-1.9,4.9-4.9,5.8-6.9,5.8c-3.4,0-5.2-2.4-5.2-4.8
			c0-2.6,2-4.9,5.2-4.7v2.6c-2-0.2-2.6,1.2-2.6,2.1c0,1.2,1,2.2,2.4,2.2c2.1,0,3.4-1.9,4.6-4.9L68,3.8c-2.6-0.6-5.3-1.2-6.9-1.2
			c-1.7,0-2.4,0.8-2.4,1.7c0,0.9,0.7,1.4,1.5,1.4c0.9,0,1.6-0.7,1.6-0.7L63.1,7c0,0-1.1,1.2-3,1.2c-2.1,0-3.9-1.4-3.9-3.9
			c0-2.1,1.4-4.3,5.1-4.3c3.5,0,9.1,2,12.8,2c2,0,2.6-0.6,2.6-0.6l1.6,0.9C78.3,2.3,78,4.6,74.2,4.6z"/>
		<path fill="#FFFFFF" d="M84.3,13.3c-1.8,3.1-3.8,5.5-6.3,5.5c-2.1,0-3.1-1.6-1.5-5.5l0.5-1.3c0.4-1.1,0.8-1.9,0.8-2.2
			c0-0.3-0.2-0.5-0.6-0.5c-0.6,0-1.6,0.5-2.6,1.6l-3.1,7.6h-3.1l6.4-15.8h3.1l-2.2,5.5c0,0,1.6-1.5,3.4-1.5c1.3,0,2,0.7,2,1.9
			c0,0.6-0.2,1.4-0.7,2.6l-1.2,2.9c-1,2.5-0.5,2.8-0.2,2.8c1,0,2.6-1.7,4.1-4.4C83.6,12.5,84.1,12.9,84.3,13.3z"/>
		<path fill="#FFFFFF" d="M94.9,13.3c-1.5,2.6-4.1,5.5-8.1,5.5c-2.8,0-4.2-1.4-4.2-3.7c0-3,2.3-8.3,6.7-8.3c2.4,0,4.2,1.7,2.8,4.7
			c-1,2.1-2.8,3.2-6.5,2.7c0,0-0.8,2.6,2,2.6c2.2,0,4.6-1.6,6.2-4.4C94.2,12.5,94.8,12.9,94.9,13.3z M86.2,12.6
			c2,0.3,2.8-0.6,3.3-1.8c0.4-0.9,0.5-1.5-0.3-1.5C87.5,9.3,86.2,12.6,86.2,12.6z"/>
	</g>
</g>
</svg>
