<?xml version="1.0" encoding="UTF-8"?>
<svg width="61px" height="54px" viewBox="0 0 61 54" version="1.1" xmlns="http://www.w3.org/2000/svg" xmlns:xlink="http://www.w3.org/1999/xlink">
    <!-- Generator: Sketch 51.1 (57501) - http://www.bohemiancoding.com/sketch -->
    <title>“</title>
    <desc>Created with Sketch.</desc>
    <defs></defs>
    <g id="Page-1" stroke="none" stroke-width="1" fill="none" fill-rule="evenodd">
        <g id="Home-Page-V3" transform="translate(-260.000000, -3406.000000)" fill="#FFFFFF">
            <g id="Group-5" transform="translate(260.000000, 3297.000000)">
                <path d="M16.2740537,137.094003 L26.038486,137.094003 L26.038486,163 L0,163 L0,143.395462 C0,121.982065 8.67940852,110.517025 26.038486,109 L26.038486,118.714749 C19.5288319,120.52351 16.2740537,125.716327 16.2740537,134.293355 L16.2740537,137.094003 Z M51.2355678,137.094003 L61,137.094003 L61,163 L34.961514,163 L34.961514,143.395462 C34.961514,121.982065 43.6409226,110.517025 61,109 L61,118.714749 C54.490346,120.52351 51.2355678,125.716327 51.2355678,134.293355 L51.2355678,137.094003 Z" id="“" transform="translate(30.500000, 136.000000) scale(-1, -1) rotate(-180.000000) translate(-30.500000, -136.000000) "></path>
            </g>
        </g>
    </g>
</svg>